<?xml version="1.0" encoding="UTF-8" standalone="no"?>
<!DOCTYPE svg PUBLIC "-//W3C//DTD SVG 1.1//EN" "http://www.w3.org/Graphics/SVG/1.1/DTD/svg11.dtd">
<svg width="100%" height="100%" viewBox="0 0 576 306" version="1.1" xmlns="http://www.w3.org/2000/svg" xmlns:xlink="http://www.w3.org/1999/xlink" xml:space="preserve" xmlns:serif="http://www.serif.com/" style="fill-rule:evenodd;clip-rule:evenodd;stroke-linejoin:round;stroke-miterlimit:2;">
    <path d="M329.87,252.13C329.59,252.56 329.32,253 329.02,253.42C318.45,268.02 307.88,282.61 297.31,297.2C296.65,298.11 296.01,299.03 295.33,299.93C294.68,300.78 294.22,300.76 293.59,299.9C282.63,284.8 271.67,269.71 260.7,254.61C260.55,254.4 260.43,254.1 260.22,254C259.79,253.77 259.28,253.5 258.84,253.55C258.63,253.57 258.36,254.3 258.36,254.71C258.34,270.19 258.34,285.66 258.34,301.14C258.34,303.12 258.33,303.14 256.32,303.14L235.63,303.14C233.25,303.14 233.21,303.1 233.21,300.78C233.21,285.45 233.21,270.13 233.23,254.8C233.23,253.75 232.84,253.4 231.86,253.41C228.15,253.43 224.44,253.44 220.73,253.41C219.72,253.41 219.48,253.83 219.48,254.77C219.51,270.28 219.5,285.8 219.5,301.31C219.5,302.96 219.32,303.14 217.6,303.14L196.23,303.14C194.74,303.14 194.49,302.88 194.49,301.35L194.49,255.26C194.49,253.55 194.4,253.44 192.63,253.44L154.17,253.44C152.85,253.44 152.72,253.57 152.72,254.94L152.72,301.14C152.72,302.95 152.55,303.13 150.73,303.13L129.36,303.13C127.85,303.13 127.57,302.85 127.57,301.37L127.57,180.19C127.57,178.56 127.85,178.27 129.44,178.27L150.69,178.27C152.52,178.27 152.7,178.45 152.7,180.25L152.7,226C152.7,227.267 153.35,227.9 154.65,227.9L192.89,227.9C194.33,227.87 194.48,227.72 194.48,226.26L194.48,179.72C194.44,178.66 194.97,178.23 196,178.26C197.01,178.29 198.02,178.26 199.04,178.26L217.59,178.26C219.3,178.26 219.48,178.44 219.48,180.11L219.48,226.42C219.48,227.84 219.53,227.91 220.9,227.92L231.7,227.92C233.05,227.92 233.2,227.76 233.2,226.46C233.2,210.42 233.2,194.38 233.21,178.35C233.21,177.76 233.43,177.16 233.55,176.57C234.04,176.97 234.64,177.29 235.01,177.78C243.07,188.78 251.09,199.81 259.13,210.82C269.73,225.35 280.34,239.87 290.94,254.39C291.74,255.48 292.52,256.58 293.32,257.66C294.28,258.97 294.61,258.98 295.55,257.7C298.96,253.04 302.36,248.38 305.76,243.72C315.27,230.67 324.78,217.62 334.29,204.57C341.04,195.3 347.77,186.03 354.52,176.76C354.64,176.59 354.84,176.48 355.24,176.13C355.37,176.9 355.54,177.44 355.54,177.99C355.56,181.21 355.55,184.43 355.55,187.66C355.55,200.63 355.55,213.59 355.53,226.56C355.53,227.54 355.87,227.92 356.81,227.92L368.84,227.92C369.84,227.92 370.18,227.51 370.18,226.48C370.15,210.97 370.16,195.45 370.15,179.94C370.15,178.32 370.5,177.95 371.99,177.95C379.3,177.97 386.61,177.99 393.92,177.99L441.93,177.99C442.15,177.99 442.38,178 442.6,177.99C445.68,177.82 445.53,178.12 445.53,180.96C445.51,187.67 445.53,194.37 445.53,201.08C445.53,202.68 445.24,202.97 443.62,202.97L397.29,202.97C395.51,202.97 395.32,203.13 395.32,204.86L395.32,226.33C395.32,227.73 395.46,227.87 396.75,227.87C414.85,227.89 432.96,227.91 451.06,227.92C452.85,227.92 452.91,227.86 452.91,226.12L452.91,180.48C452.91,178.48 453.08,178.32 455.11,178.31C465.64,178.3 476.18,178.24 486.71,178.3C497.54,178.36 507.83,180.77 517.38,185.93C526.23,190.72 533.61,197.21 539.1,205.69C541.92,210.04 544.03,214.74 545.54,219.73C548.24,228.67 548.97,237.8 548.29,247.07C547.84,253.3 546.65,259.41 544.44,265.25C541.36,273.36 536.64,280.38 530.24,286.29C526.14,290.08 521.68,293.35 516.75,295.94C509.81,299.59 502.41,301.82 494.6,302.58C491.47,302.89 488.32,303.07 485.18,303.09C475.17,303.15 465.16,303.12 455.16,303.11C453.02,303.11 452.92,303 452.92,300.9L452.92,254.81C452.92,253.51 452.77,253.38 451.14,253.38C433.9,253.39 416.65,253.41 399.41,253.43L396.49,253.43C395.7,253.42 395.32,253.75 395.32,254.57C395.33,262.03 395.32,269.48 395.34,276.94C395.34,278.11 395.68,278.35 396.98,278.35L443.31,278.35C445.39,278.35 445.53,278.49 445.53,280.59L445.53,301.39C445.53,303.01 445.27,303.28 443.63,303.28L372.22,303.28C370.39,303.28 370.15,303.03 370.15,301.21C370.15,285.73 370.15,270.26 370.17,254.78C370.17,253.8 369.84,253.4 368.89,253.41L356.75,253.41C355.86,253.41 355.53,253.78 355.53,254.71C355.56,270.19 355.55,285.66 355.55,301.14C355.55,303.03 355.45,303.13 353.61,303.13L332.47,303.13C330.69,303.13 330.56,302.98 330.56,301.2L330.56,253.99C330.56,253.49 330.47,252.98 330.43,252.48C330.24,252.37 330.05,252.26 329.86,252.15L329.87,252.13ZM477.97,240.49L477.97,276.24C477.97,277.89 478.21,278.12 479.87,278.12C482.04,278.12 484.22,278.15 486.39,278.1C495.88,277.91 504.57,275.47 511.88,269.07C515.98,265.48 518.87,261.03 520.76,256.02C522.5,251.39 523.41,246.54 523.48,241.52C523.59,233.68 521.95,226.31 517.92,219.61C514.51,213.93 509.66,209.73 503.61,206.88C500.14,205.25 496.57,204.02 492.78,203.69C488.61,203.33 484.41,203.25 480.22,203.11C478.13,203.04 477.97,203.24 477.97,205.32L477.97,240.51L477.97,240.49Z" style="fill:white;fill-rule:nonzero;"/>
    <path d="M164.01,165.03C160.04,165.03 156.06,165.01 152.09,165.05C151.19,165.05 150.63,164.8 150.26,163.94C148.73,160.45 147.15,156.98 145.59,153.5C144.66,151.42 143.76,149.32 142.83,147.24C142.48,146.46 141.92,146.06 140.99,146.06C127.53,146.08 114.08,146.08 100.62,146.06C99.68,146.06 99.23,146.58 98.93,147.28C97.18,151.49 95.5,155.72 93.74,159.92C92.85,162.05 91.86,164.14 90.94,166.26C89.69,169.14 88.46,172.02 87.22,174.91C85.72,178.41 84.23,181.92 82.73,185.42C81.47,188.37 80.2,191.33 78.94,194.28C77.73,197.1 76.52,199.91 75.31,202.72C74.94,203.58 74.41,204.4 74.22,205.29C74.06,206.04 74.07,206.97 74.37,207.66C76.7,213.04 79.11,218.39 81.51,223.75C83.85,228.97 86.23,234.17 88.56,239.39C90.88,244.58 93.16,249.78 95.48,254.97C97.8,260.16 100.15,265.33 102.48,270.51C104.53,275.08 106.55,279.66 108.59,284.24C110.36,288.2 112.14,292.15 113.92,296.1C114.8,298.04 115.7,299.97 116.56,301.92C116.85,302.57 116.61,303.02 115.85,303.09C115.59,303.11 115.33,303.11 115.06,303.11C107.15,303.11 99.24,303.1 91.33,303.13C90.35,303.13 89.74,302.89 89.33,301.94C87.83,298.48 86.25,295.05 84.71,291.6C83.78,289.52 82.88,287.42 81.96,285.34C81.59,284.51 80.97,284.14 80.01,284.14C66.63,284.16 53.25,284.16 39.87,284.14C38.9,284.14 38.4,284.62 38.06,285.36C36.59,288.63 35.15,291.92 33.69,295.19C32.66,297.51 31.6,299.82 30.58,302.15C30.29,302.82 29.86,303.12 29.12,303.12C20.91,303.11 12.7,303.12 4.49,303.12C3.4,303.12 3.21,302.7 3.67,301.7C5.19,298.37 6.67,295.02 8.17,291.68C9.99,287.62 11.81,283.57 13.63,279.51C15.09,276.24 16.55,272.96 18.01,269.68C19.84,265.59 21.68,261.5 23.51,257.4C25.28,253.44 27.03,249.48 28.8,245.52C30.31,242.14 31.83,238.77 33.35,235.39C35.11,231.47 36.85,227.54 38.6,223.62C40.11,220.24 41.63,216.87 43.12,213.48C44.11,211.23 45.04,208.95 46.01,206.68C46.94,204.49 47.87,202.29 48.82,200.1C49.78,197.91 50.78,195.75 51.73,193.56C52.96,190.72 54.14,187.86 55.37,185.02C56.6,182.18 57.88,179.36 59.11,176.51C60.64,172.98 62.16,169.44 63.64,165.89C64.96,162.73 66.17,159.53 67.54,156.39C68.81,153.49 70.24,150.67 71.57,147.79C72.93,144.84 74.27,141.87 75.6,138.91C77.11,135.53 78.61,132.15 80.12,128.77C81.93,124.71 83.74,120.65 85.56,116.59C87.35,112.6 89.15,108.62 90.94,104.63C92.68,100.74 94.41,96.85 96.15,92.96C97.71,89.48 99.27,86 100.82,82.52C102.31,79.17 103.79,75.82 105.28,72.48C106.77,69.14 108.28,65.8 109.78,62.45C111.31,59.04 112.82,55.62 114.35,52.21C115.86,48.83 117.38,45.46 118.89,42.08C119.32,41.13 119.69,40.15 120.16,39.21C120.31,38.92 120.65,38.55 120.92,38.54C121.16,38.53 121.51,38.92 121.64,39.22C123.78,43.95 125.9,48.69 128.01,53.44C130.32,58.63 132.62,63.83 134.94,69.01C137,73.62 139.1,78.2 141.16,82.81C143.22,87.42 145.24,92.04 147.3,96.64C149.36,101.25 151.46,105.83 153.52,110.44C155.57,115.01 157.58,119.6 159.62,124.17C161.66,128.74 163.74,133.3 165.79,137.87C167.85,142.48 169.88,147.1 171.94,151.7C173.71,155.66 175.5,159.61 177.3,163.55C177.77,164.57 177.55,165.01 176.38,165.01C172.26,165.03 168.13,165.01 164.01,165.01L164.01,165.03ZM120.89,123.9L130.56,123.9C132,123.9 132.18,123.62 131.66,122.33C131.1,120.95 130.5,119.58 129.91,118.2C128.7,115.39 127.49,112.57 126.28,109.76C124.76,106.23 123.24,102.69 121.7,99.16C121.57,98.86 121.28,98.63 121.07,98.37C120.79,98.6 120.4,98.78 120.26,99.07C119.61,100.46 119.04,101.88 118.43,103.28C116.94,106.71 115.45,110.13 113.95,113.55C112.69,116.42 111.4,119.28 110.19,122.17C109.57,123.65 109.79,123.89 111.45,123.89L120.89,123.89L120.89,123.9ZM59.97,261.98L61.65,261.98C64.38,261.98 67.12,262 69.85,261.97C71.04,261.96 71.25,261.62 70.83,260.53C70.54,259.8 70.23,259.08 69.92,258.36C68.38,254.8 66.84,251.23 65.31,247.67C63.82,244.21 62.35,240.74 60.85,237.28C60.72,236.97 60.46,236.71 60.25,236.43C59.95,236.68 59.53,236.88 59.38,237.2C58.73,238.58 58.16,240.01 57.55,241.41C56.06,244.83 54.57,248.25 53.07,251.67C51.82,254.54 50.53,257.4 49.31,260.29C48.72,261.69 48.96,261.97 50.53,261.97L59.96,261.97L59.97,261.98Z" style="fill:white;fill-rule:nonzero;"/>
    <path d="M575.7,169.63C574.5,168.58 573.54,167.78 572.62,166.92C557.8,153.09 542.99,139.25 528.16,125.42C518.87,116.75 509.57,108.1 500.26,99.46C500,99.22 499.56,99.16 499.21,99.02C499.09,99.35 498.93,99.68 498.86,100.02C498.8,100.35 498.85,100.69 498.85,101.03L498.85,163.31C498.85,164.92 498.58,165.19 496.95,165.19L476.03,165.19C473.92,165.19 473.7,164.97 473.7,162.89C473.7,122.31 473.7,81.73 473.72,41.15C473.72,40.27 474.01,39.39 474.17,38.51C474.88,39.01 475.67,39.42 476.29,40.02C491.05,54.03 505.79,68.05 520.53,82.09C529.46,90.59 538.37,99.11 547.3,107.61C547.58,107.88 547.9,108.12 548.48,108.6L548.48,0.29L575.69,0.29L575.69,169.63L575.7,169.63Z" style="fill:white;fill-rule:nonzero;"/>
    <path d="M451.95,165.03C447.94,165.03 443.93,165.01 439.92,165.05C439.06,165.05 438.53,164.79 438.18,163.98C436.62,160.42 435.02,156.88 433.43,153.33C432.52,151.28 431.62,149.23 430.7,147.18C430.34,146.38 429.73,146.06 428.82,146.06C415.4,146.08 401.98,146.08 388.56,146.06C387.63,146.06 387.17,146.54 386.85,147.25C385.36,150.56 383.91,153.88 382.44,157.19C381.42,159.48 380.37,161.75 379.36,164.04C379.05,164.75 378.59,165.04 377.8,165.04C369.63,165.02 361.46,165.04 353.29,165.03C352.19,165.03 351.98,164.61 352.43,163.62C354.26,159.56 356.05,155.5 357.87,151.44C359.64,147.48 361.44,143.54 363.21,139.58C365,135.59 366.75,131.58 368.53,127.59C370.01,124.28 371.51,120.98 372.99,117.67C374.49,114.33 375.98,110.98 377.48,107.64C379.02,104.19 380.57,100.75 382.1,97.3C383.61,93.92 385.1,90.54 386.61,87.16C388.38,83.2 390.16,79.25 391.93,75.29C393.72,71.3 395.49,67.3 397.27,63.31C398.78,59.93 400.31,56.56 401.82,53.18C403.32,49.84 404.81,46.49 406.3,43.14C406.89,41.81 407.44,40.46 408.07,39.15C408.21,38.87 408.58,38.58 408.87,38.54C409.05,38.51 409.39,38.9 409.51,39.17C412.23,45.2 414.93,51.24 417.62,57.28C420.21,63.08 422.76,68.9 425.36,74.7C427.97,80.53 430.63,86.34 433.24,92.18C436.12,98.63 438.96,105.1 441.84,111.55C444.99,118.58 448.18,125.58 451.32,132.61C454.19,139.02 457.02,145.46 459.88,151.87C461.63,155.79 463.42,159.7 465.21,163.61C465.66,164.6 465.4,165.01 464.19,165.02C460.1,165.03 456.02,165.02 451.93,165.02L451.95,165.03ZM408.73,123.9C411.99,123.9 415.25,123.9 418.51,123.89C419.88,123.89 420.08,123.6 419.58,122.37C419.04,121.06 418.46,119.76 417.9,118.46C416.35,114.86 414.79,111.26 413.25,107.65C412.04,104.84 410.84,102.02 409.62,99.21C409.48,98.9 409.23,98.64 409.03,98.35C408.73,98.6 408.3,98.79 408.15,99.11C407.5,100.49 406.93,101.92 406.32,103.32C404.85,106.71 403.37,110.1 401.89,113.49C400.62,116.4 399.31,119.29 398.08,122.22C397.49,123.61 397.73,123.89 399.3,123.89L408.74,123.89L408.73,123.9Z" style="fill:white;fill-rule:nonzero;"/>
    <path d="M291.04,146.08C284.41,146.08 277.77,146.1 271.14,146.06C270.15,146.06 269.58,146.45 269.21,147.27C267.74,150.58 266.28,153.9 264.81,157.21C263.78,159.53 262.76,161.86 261.63,164.14C261.42,164.56 260.73,164.99 260.27,164.99C252.06,165.04 243.85,165.04 235.64,165.03C234.56,165.03 234.37,164.6 234.82,163.6C236.65,159.55 238.44,155.48 240.26,151.42C242.03,147.47 243.84,143.52 245.61,139.57C247.4,135.58 249.14,131.57 250.93,127.57C252.7,123.61 254.49,119.67 256.26,115.71C258.05,111.72 259.81,107.72 261.59,103.73C263.08,100.39 264.6,97.05 266.09,93.71C267.59,90.37 269.08,87.02 270.57,83.68C272.06,80.33 273.54,76.99 275.04,73.64C276.87,69.54 278.7,65.45 280.53,61.36C282.32,57.37 284.13,53.39 285.92,49.4C287.4,46.09 288.85,42.77 290.35,39.47C290.52,39.1 290.89,38.83 291.17,38.52C291.44,38.82 291.82,39.09 291.98,39.44C293.49,42.78 294.97,46.13 296.46,49.47C297.97,52.85 299.49,56.22 301,59.6C302.51,62.98 304.03,66.35 305.54,69.73C307.07,73.14 308.58,76.56 310.11,79.97C311.62,83.35 313.15,86.71 314.67,90.09C316.15,93.4 317.62,96.71 319.1,100.02C320.92,104.08 322.75,108.13 324.56,112.19C326.31,116.11 328.05,120.04 329.81,123.97C331.61,128 333.43,132.01 335.23,136.04C336.99,139.96 338.74,143.89 340.49,147.81C342.29,151.84 344.09,155.86 345.9,159.88C346.5,161.21 347.13,162.52 347.71,163.86C347.99,164.52 347.76,164.96 347,165.03C346.66,165.06 346.33,165.05 345.99,165.05C338.19,165.05 330.4,165.03 322.6,165.07C321.53,165.07 320.87,164.81 320.42,163.77C318.94,160.34 317.38,156.94 315.86,153.53C314.93,151.45 314.03,149.36 313.11,147.27C312.71,146.37 312.03,146.07 311.05,146.08C304.38,146.11 297.71,146.1 291.03,146.1L291.04,146.08ZM291.07,123.91L295,123.91C297.02,123.91 299.05,123.93 301.07,123.9C302.21,123.88 302.41,123.55 302,122.52C301.68,121.72 301.34,120.93 301,120.14C299.51,116.67 298.02,113.21 296.53,109.74C295.01,106.21 293.49,102.67 291.96,99.14C291.84,98.86 291.6,98.63 291.42,98.37C291.11,98.61 290.69,98.78 290.52,99.1C290.13,99.82 289.86,100.6 289.53,101.35C288.04,104.78 286.56,108.21 285.07,111.63C283.53,115.16 281.96,118.67 280.45,122.2C279.84,123.62 280.07,123.89 281.63,123.9L291.07,123.9L291.07,123.91Z" style="fill:white;fill-rule:nonzero;"/>
    <path d="M218.02,138.05L218.02,163.34C218.02,164.94 217.92,165.04 216.29,165.04L194.82,165.04C193.33,165.04 193.18,164.9 193.18,163.35C193.18,146.83 193.14,130.31 193.23,113.79C193.24,111.63 192.29,109.99 191.36,108.26C188.15,102.26 184.89,96.29 181.64,90.31C178.21,84 174.76,77.71 171.33,71.4C167.91,65.09 164.52,58.76 161.11,52.45C159.16,48.83 157.19,45.22 155.23,41.6C154.62,40.48 154.8,40.19 156.15,40.19C164.02,40.19 171.89,40.33 179.76,40.11C182.29,40.04 183.38,41.01 184.37,43.09C186.21,46.97 188.34,50.72 190.35,54.52C192.69,58.95 195.03,63.38 197.36,67.81C199.88,72.61 202.39,77.41 204.91,82.21C205.3,82.95 205.92,82.93 206.33,82.16C207.73,79.52 209.11,76.86 210.5,74.21C212.82,69.77 215.14,65.33 217.47,60.9C220.1,55.9 222.73,50.91 225.36,45.92C226.21,44.3 227,42.64 227.95,41.08C228.22,40.64 228.95,40.22 229.48,40.22C238.1,40.17 246.72,40.18 255.34,40.2C256.42,40.2 256.6,40.56 256.08,41.52C252.78,47.6 249.47,53.67 246.17,59.76C242.75,66.07 239.36,72.4 235.93,78.71C232.5,85.02 229.04,91.31 225.61,97.61C223.24,101.98 220.87,106.35 218.57,110.76C218.21,111.45 218.05,112.32 218.05,113.11C218.01,121.43 218.03,129.74 218.03,138.06L218.02,138.05Z" style="fill:white;fill-rule:nonzero;"/>
    <path d="M413.27,220.52C410.84,220.52 408.4,220.48 405.97,220.54C405.02,220.56 404.62,220.31 404.66,219.28C404.73,217.07 404.71,214.87 404.66,212.66C404.64,211.82 404.85,211.45 405.78,211.45C410.79,211.49 415.81,211.49 420.82,211.45C421.73,211.45 421.98,211.78 421.96,212.64C421.92,214.88 421.91,217.13 421.96,219.37C421.98,220.26 421.65,220.54 420.78,220.53C418.27,220.49 415.77,220.52 413.26,220.51L413.27,220.52Z" style="fill:white;fill-rule:nonzero;"/>
    <path d="M413.39,261.61C415.86,261.61 418.33,261.64 420.8,261.59C421.68,261.57 422,261.86 421.98,262.75C421.93,264.99 421.94,267.24 421.98,269.48C422,270.34 421.73,270.68 420.83,270.67C415.82,270.64 410.8,270.64 405.79,270.67C404.96,270.67 404.66,270.39 404.67,269.56C404.71,267.28 404.72,265 404.67,262.71C404.65,261.78 405.03,261.57 405.88,261.59C408.39,261.63 410.89,261.61 413.4,261.6L413.39,261.61Z" style="fill:white;fill-rule:nonzero;"/>
</svg>
